<?xml version="1.0" encoding="utf-8"?>
<!-- Generator: Adobe Illustrator 27.5.0, SVG Export Plug-In . SVG Version: 6.00 Build 0)  -->
<svg version="1.1" id="Livello_1" xmlns="http://www.w3.org/2000/svg" xmlns:xlink="http://www.w3.org/1999/xlink" x="0px" y="0px"
	 viewBox="0 0 922.3 238.6" style="enable-background:new 0 0 922.3 238.6;" xml:space="preserve">
<style type="text/css">
	.st0{fill:#B0B1B1;}
	.st1{fill:#1D1D1B;}
	.st2{clip-path:url(#SVGID_00000098187576270976466890000002345314079756803260_);fill:#B0B1B1;}
	.st3{clip-path:url(#SVGID_00000078038400325272225900000008221871303782730135_);fill:#B0B1B1;}
	.st4{clip-path:url(#SVGID_00000064344553313959598880000014671310685646736571_);fill:#FF0000;}
	.st5{clip-path:url(#SVGID_00000170246233275864135900000002378697458509175725_);fill:#FF0000;}
	.st6{clip-path:url(#SVGID_00000098901359882491573850000009645040029673579175_);fill:#FF0000;}
	.st7{clip-path:url(#SVGID_00000008837221183096899840000005097053155099157649_);fill:#FF0000;}
	.st8{clip-path:url(#SVGID_00000019670906467529837120000001676546019702819995_);fill:#FF0000;}
	.st9{clip-path:url(#SVGID_00000098179580463121845450000006875599266083728042_);fill:#FF0000;}
	.st10{clip-path:url(#SVGID_00000070101828781436823690000017696704562349919905_);fill:#FF0000;}
	.st11{clip-path:url(#SVGID_00000116226860899323910710000005762782816971235210_);fill:#B0B1B1;}
	.st12{clip-path:url(#SVGID_00000181085973096662323900000006789880524859372457_);fill:#B0B1B1;}
	.st13{clip-path:url(#SVGID_00000106109088265389844930000014446539693580731325_);fill:#B0B1B1;}
	.st14{clip-path:url(#SVGID_00000064335215442042139810000013540897939547484342_);fill:#B0B1B1;}
	.st15{clip-path:url(#SVGID_00000183936213886892906400000012633269292454480278_);fill:#B0B1B1;}
	.st16{clip-path:url(#SVGID_00000056392788841233573540000001528638552797664901_);fill:#B0B1B1;}
	.st17{clip-path:url(#SVGID_00000096051499459610235320000006452270702043098017_);fill:#B0B1B1;}
	.st18{clip-path:url(#SVGID_00000114787706628240615170000014788696486486104479_);fill:#B0B1B1;}
	.st19{clip-path:url(#SVGID_00000054986022085934875030000005768603181117661607_);fill:#B0B1B1;}
	.st20{clip-path:url(#SVGID_00000180364979623535128510000000636228195404329139_);fill:#B0B1B1;}
	.st21{clip-path:url(#SVGID_00000054260784503406840790000001258956223805979539_);fill:#B0B1B1;}
	.st22{clip-path:url(#SVGID_00000093143862739877177560000014242216367735717776_);fill:#B0B1B1;}
	.st23{clip-path:url(#SVGID_00000146466276243670416290000002616649883615258756_);fill:#B0B1B1;}
	.st24{clip-path:url(#SVGID_00000061447268733380567440000005122962160687920787_);fill:#B0B1B1;}
	.st25{clip-path:url(#SVGID_00000032635382214908512280000013756855714592840110_);fill:#B0B1B1;}
	.st26{clip-path:url(#SVGID_00000101079204815452351470000007361021883324112526_);fill:#B0B1B1;}
	.st27{clip-path:url(#SVGID_00000155141623530952416330000006838222960637153429_);fill:#B0B1B1;}
	.st28{clip-path:url(#SVGID_00000002347620899644550950000000964829055391933090_);fill:#B0B1B1;}
	.st29{clip-path:url(#SVGID_00000056394570899917906220000017273634237017406338_);fill:#B0B1B1;}
	.st30{clip-path:url(#SVGID_00000129181235349928578030000015067748050723826875_);fill:#B0B1B1;}
	.st31{clip-path:url(#SVGID_00000137812223232585484270000005970942165385538459_);fill:#B0B1B1;}
	.st32{clip-path:url(#SVGID_00000077288014871500883270000010684417100361456050_);fill:#B0B1B1;}
	.st33{clip-path:url(#SVGID_00000013886240565046350030000009506159022928612490_);fill:#B0B1B1;}
	.st34{clip-path:url(#SVGID_00000049192120129255058510000003727084732723126683_);fill:#B0B1B1;}
	.st35{clip-path:url(#SVGID_00000172434241386667391050000008000518017429173644_);fill:#B0B1B1;}
	.st36{clip-path:url(#SVGID_00000085244637736932682800000008329663583219607707_);fill:#B0B1B1;}
	.st37{clip-path:url(#SVGID_00000160166951590624489470000013333410892631211659_);fill:#B0B1B1;}
	.st38{clip-path:url(#SVGID_00000093149136946171595330000018061233186064049054_);fill:#B0B1B1;}
	.st39{clip-path:url(#SVGID_00000139272680020599461760000018345218005968349839_);fill:#B0B1B1;}
	.st40{clip-path:url(#SVGID_00000183247555241085728660000016770443920555798409_);fill:#B0B1B1;}
	.st41{clip-path:url(#SVGID_00000183929379094128332100000003176827075590030507_);fill:#B0B1B1;}
	.st42{clip-path:url(#SVGID_00000021802791191358486500000015412283754561113002_);fill:#B0B1B1;}
	.st43{clip-path:url(#SVGID_00000020370969544658881570000003298381153536397759_);fill:#B0B1B1;}
	.st44{clip-path:url(#SVGID_00000053543899757750791970000016016508567493838762_);fill:#B0B1B1;}
	.st45{clip-path:url(#SVGID_00000042712056466103096940000002338074743215153280_);fill:#B0B1B1;}
	.st46{clip-path:url(#SVGID_00000142891049627678937090000005659381927478846361_);fill:#B0B1B1;}
	.st47{clip-path:url(#SVGID_00000096781818855714128160000017130628880901882547_);fill:#B0B1B1;}
	.st48{clip-path:url(#SVGID_00000010991173973871834440000010095324310822225295_);fill:#B0B1B1;}
	.st49{clip-path:url(#SVGID_00000172423348342889995280000015982944704934532764_);fill:#B0B1B1;}
	.st50{clip-path:url(#SVGID_00000147210313558949787150000004672040229937662399_);fill:#B0B1B1;}
	.st51{clip-path:url(#SVGID_00000011021940341623602050000013134133815042917283_);fill:#B0B1B1;}
	.st52{clip-path:url(#SVGID_00000034061620584018127940000003890730647394230432_);fill:#B0B1B1;}
	.st53{clip-path:url(#SVGID_00000098910930906211412000000010418126064321249211_);fill:#B0B1B1;}
	.st54{clip-path:url(#SVGID_00000002349537651932730570000013330760300259669387_);fill:#B0B1B1;}
</style>
<g id="Logo_vecchio">
</g>
<g id="Logo_nuovo">
	<path class="st0" d="M192,208.7h6.1v23.9h14.4v5.2H192L192,208.7L192,208.7z"/>
	<path class="st0" d="M226.8,208.7h6v29.2h-6V208.7z"/>
	<path class="st0" d="M266.9,237.1c-1.6,1-3.6,1.5-5.9,1.5c-3.9,0-7-1.3-9.5-4c-2.6-2.7-3.9-6.4-3.9-11c0-4.7,1.3-8.5,3.9-11.4
		s6-4.3,10.3-4.3c3.7,0,6.7,0.9,8.9,2.8s3.5,4.2,3.9,7h-6c-0.5-2-1.6-3.4-3.4-4.2c-1-0.4-2.1-0.7-3.3-0.7c-2.4,0-4.3,0.9-5.8,2.7
		c-1.5,1.8-2.3,4.4-2.3,8c0,3.6,0.8,6.1,2.5,7.6s3.5,2.2,5.6,2.2c2,0,3.7-0.6,5-1.8s2.1-2.7,2.4-4.6h-6.8v-4.9h12.1v15.7h-4
		l-0.6-3.6C268.9,235.6,267.9,236.6,266.9,237.1z"/>
	<path class="st0" d="M308.5,237.8v-13h-11.4v13h-6v-29.2h6v11.1h11.4v-11.1h6v29.2H308.5z"/>
	<path class="st0" d="M352,208.7v5.2h-8.7v24h-6.1v-24h-8.8v-5.2H352z"/>
	<path class="st0" d="M376.7,233.6c1.4,0,2.6-0.2,3.5-0.5c1.7-0.6,2.5-1.7,2.5-3.4c0-1-0.4-1.7-1.3-2.2c-0.8-0.5-2.2-1-4-1.4
		l-3.1-0.7c-3-0.7-5.1-1.4-6.3-2.2c-2-1.3-3-3.5-3-6.3c0-2.6,1-4.8,2.9-6.5s4.7-2.6,8.4-2.6c3.1,0,5.7,0.8,7.9,2.4
		c2.2,1.6,3.3,4,3.4,7.1h-5.9c-0.1-1.8-0.9-3-2.3-3.7c-1-0.5-2.1-0.7-3.5-0.7c-1.6,0-2.8,0.3-3.8,1s-1.4,1.5-1.4,2.7
		c0,1,0.5,1.8,1.4,2.3c0.6,0.3,1.9,0.8,3.8,1.2l5,1.2c2.2,0.5,3.9,1.2,5,2.1c1.7,1.4,2.6,3.4,2.6,6c0,2.7-1,4.9-3.1,6.6
		s-4.9,2.6-8.6,2.6c-3.8,0-6.8-0.9-9-2.6s-3.3-4.1-3.3-7.2h5.8c0.2,1.3,0.5,2.3,1.1,3C372.6,233,374.3,233.6,376.7,233.6z"/>
	<path class="st0" d="M438.4,238.6c-4.2,0-7.4-1.1-9.6-3.4c-3-2.8-4.4-6.8-4.4-12c0-5.3,1.5-9.3,4.4-12c2.2-2.3,5.4-3.4,9.6-3.4
		s7.3,1.1,9.6,3.4c2.9,2.7,4.4,6.7,4.4,12c0,5.2-1.5,9.2-4.4,12C445.7,237.5,442.5,238.6,438.4,238.6z M444.1,230.8
		c1.4-1.8,2.1-4.3,2.1-7.6c0-3.3-0.7-5.8-2.1-7.6c-1.4-1.8-3.3-2.7-5.8-2.7s-4.3,0.9-5.8,2.7c-1.4,1.8-2.2,4.3-2.2,7.6
		c0,3.3,0.7,5.8,2.2,7.6c1.4,1.8,3.4,2.7,5.8,2.7S442.7,232.6,444.1,230.8z"/>
	<path class="st0" d="M491.1,237.8H485l-11.9-20.7v20.7h-5.7v-29.2h6.4l11.6,20.4v-20.4h5.7V237.8z"/>
	<path class="st1" d="M549.5,225.1h-14.2v7.5h16.1v5.2h-22.1v-29.2h21.4v5.2h-15.4v6.2h14.2L549.5,225.1L549.5,225.1z"/>
	<path class="st1" d="M566.7,208.7h6.1v23.9h14.4v5.2h-20.5L566.7,208.7L566.7,208.7z"/>
	<path class="st1" d="M622.3,225.1h-14.2v7.5h16.1v5.2h-22.1v-29.2h21.4v5.2h-15.4v6.2h14.2L622.3,225.1L622.3,225.1z"/>
	<path class="st1" d="M660.2,235.7c-2.2,2-5,3-8.3,3c-4.2,0-7.5-1.3-9.9-4c-2.4-2.7-3.6-6.4-3.6-11.1c0-5.1,1.4-9,4.1-11.8
		c2.4-2.4,5.4-3.6,9.1-3.6c4.9,0,8.5,1.6,10.8,4.8c1.2,1.8,1.9,3.6,2,5.4h-6.1c-0.4-1.4-0.9-2.5-1.5-3.2c-1.1-1.3-2.8-1.9-4.9-1.9
		c-2.2,0-4,0.9-5.2,2.7c-1.3,1.8-1.9,4.3-1.9,7.6s0.7,5.7,2,7.3c1.3,1.6,3.1,2.4,5.2,2.4c2.1,0,3.8-0.7,4.9-2.1
		c0.6-0.8,1.1-1.9,1.5-3.4h6C663.7,231.1,662.3,233.7,660.2,235.7z"/>
	<path class="st1" d="M700.5,208.7v5.2h-8.7v24h-6.1v-24h-8.8v-5.2H700.5z"/>
	<path class="st1" d="M727,226.4h-6.3v11.4h-6v-29.2H729c2,0,3.6,0.3,4.7,0.8s2,1.1,2.8,2c0.6,0.7,1.1,1.6,1.5,2.5
		c0.4,0.9,0.5,1.9,0.5,3.1c0,1.4-0.3,2.8-1,4.1c-0.7,1.3-1.8,2.3-3.5,2.8c1.3,0.5,2.3,1.3,2.9,2.3c0.6,1,0.8,2.5,0.8,4.6v2
		c0,1.3,0,2.2,0.2,2.7c0.2,0.8,0.5,1.3,1.1,1.7v0.7h-6.7c-0.2-0.7-0.3-1.2-0.4-1.6c-0.2-0.8-0.2-1.7-0.3-2.5l0-2.7
		c0-1.9-0.4-3.1-1-3.7C730,226.7,728.8,226.4,727,226.4z M730.7,221.1c1.2-0.5,1.8-1.7,1.8-3.3c0-1.8-0.6-3-1.8-3.6
		c-0.7-0.3-1.7-0.5-3-0.5h-7.1v7.8h6.9C729,221.6,730,221.4,730.7,221.1z"/>
	<path class="st1" d="M767.3,238.6c-4.2,0-7.3-1.1-9.5-3.4c-3-2.8-4.4-6.8-4.4-12c0-5.3,1.5-9.3,4.4-12c2.2-2.3,5.4-3.4,9.5-3.4
		c4.2,0,7.3,1.1,9.6,3.4c2.9,2.7,4.4,6.7,4.4,12c0,5.2-1.5,9.2-4.4,12C774.6,237.5,771.4,238.6,767.3,238.6z M773,230.8
		c1.4-1.8,2.1-4.3,2.1-7.6c0-3.3-0.7-5.8-2.1-7.6c-1.4-1.8-3.3-2.7-5.8-2.7c-2.4,0-4.3,0.9-5.8,2.7c-1.4,1.8-2.2,4.3-2.2,7.6
		c0,3.3,0.7,5.8,2.2,7.6c1.4,1.8,3.4,2.7,5.8,2.7C769.7,233.5,771.6,232.6,773,230.8z"/>
	<path class="st1" d="M820,237.8h-6.1L802,217.1v20.7h-5.7v-29.2h6.4l11.6,20.4v-20.4h5.7V237.8z"/>
	<path class="st1" d="M835.7,208.7h6v29.2h-6V208.7z"/>
	<path class="st1" d="M878.5,235.7c-2.2,2-5,3-8.3,3c-4.2,0-7.5-1.3-9.9-4c-2.4-2.7-3.6-6.4-3.6-11.1c0-5.1,1.4-9,4.1-11.8
		c2.4-2.4,5.4-3.6,9.1-3.6c4.9,0,8.5,1.6,10.8,4.8c1.2,1.8,1.9,3.6,2,5.4h-6.1c-0.4-1.4-0.9-2.5-1.5-3.2c-1.1-1.3-2.8-1.9-4.9-1.9
		c-2.2,0-4,0.9-5.2,2.7c-1.3,1.8-1.9,4.3-1.9,7.6s0.7,5.7,2,7.3c1.3,1.6,3.1,2.4,5.2,2.4c2.1,0,3.8-0.7,4.9-2.1
		c0.6-0.8,1.1-1.9,1.5-3.4h6C882,231.1,880.7,233.7,878.5,235.7z"/>
	<path class="st1" d="M908.3,233.6c1.4,0,2.6-0.2,3.5-0.5c1.7-0.6,2.5-1.7,2.5-3.4c0-1-0.4-1.7-1.3-2.2c-0.8-0.5-2.2-1-4-1.4
		l-3.1-0.7c-3-0.7-5.1-1.4-6.3-2.2c-2-1.3-3-3.5-3-6.3c0-2.6,1-4.8,2.8-6.5c1.9-1.7,4.7-2.6,8.4-2.6c3.1,0,5.7,0.8,7.9,2.4
		s3.3,4,3.4,7.1h-5.9c-0.1-1.8-0.9-3-2.3-3.7c-1-0.5-2.1-0.7-3.5-0.7c-1.6,0-2.8,0.3-3.8,1s-1.4,1.5-1.4,2.7c0,1,0.5,1.8,1.4,2.3
		c0.6,0.3,1.9,0.8,3.8,1.2l5,1.2c2.2,0.5,3.9,1.2,5,2.1c1.7,1.4,2.6,3.4,2.6,6c0,2.7-1,4.9-3.1,6.6s-4.9,2.6-8.6,2.6
		c-3.8,0-6.8-0.9-9-2.6c-2.2-1.7-3.3-4.1-3.3-7.2h5.8c0.2,1.3,0.5,2.3,1.1,3C904.2,233,905.9,233.6,908.3,233.6z"/>
	<g>
		<g>
			<defs>
				<rect id="SVGID_1_" width="922.3" height="182.3"/>
			</defs>
			<clipPath id="SVGID_00000052798385293229427520000016905630760810786433_">
				<use xlink:href="#SVGID_1_"  style="overflow:visible;"/>
			</clipPath>
			<path style="clip-path:url(#SVGID_00000052798385293229427520000016905630760810786433_);fill:#B0B1B1;" d="M82.7,0H53.5v55.5
				h37.9V34.2l13.9,14l34.6,34.8l-48.5,48.4h0v-21.3H53.5v0v55.4h29.2c33.5,0,62.4-19.8,75.5-48.2h0c4.9-10.5,7.6-22.1,7.6-34.4
				C165.8,37.1,128.6,0,82.7,0"/>
		</g>
		<g>
			<defs>
				<rect id="SVGID_00000134229007542870362990000016651304196255270581_" width="922.3" height="182.3"/>
			</defs>
			<clipPath id="SVGID_00000021079694579889437070000008855483726385520806_">
				<use xlink:href="#SVGID_00000134229007542870362990000016651304196255270581_"  style="overflow:visible;"/>
			</clipPath>
			<polygon style="clip-path:url(#SVGID_00000021079694579889437070000008855483726385520806_);fill:#B0B1B1;" points="0,165.8 
				48.5,165.8 48.5,110.2 30.7,110.2 30.7,55.5 48.5,55.5 48.5,0 0,0 			"/>
		</g>
		<g>
			<defs>
				<rect id="SVGID_00000088840132897543615650000011971680116954474172_" width="922.3" height="182.3"/>
			</defs>
			<clipPath id="SVGID_00000170259443981284318490000018232194664413362595_">
				<use xlink:href="#SVGID_00000088840132897543615650000011971680116954474172_"  style="overflow:visible;"/>
			</clipPath>
			<path style="clip-path:url(#SVGID_00000170259443981284318490000018232194664413362595_);fill:#FF0000;" d="M258.4,0v130.7l0,0.2
				v3.8h-20.2c-2.8,0-5.1-2.2-5.1-5v-4.5l0-4.4h0v-38c0.1-2.7,2.3-4.8,5-4.8v0l6.8-0.1V47.2h-35l0,0c-10.4,0-18.9,7.6-19.8,17.2l0,0
				l-0.1,72c0,2.2,0.3,4.4,0.8,6.5c0.1,0.6,0.2,1.2,0.5,1.8c3.6,12.1,14.8,21,28,21h81.9V0H258.4z"/>
		</g>
		<g>
			<defs>
				<rect id="SVGID_00000180332175408429955760000015575287593747687042_" width="922.3" height="182.3"/>
			</defs>
			<clipPath id="SVGID_00000042736691942306583070000002932673905639803835_">
				<use xlink:href="#SVGID_00000180332175408429955760000015575287593747687042_"  style="overflow:visible;"/>
			</clipPath>
			
				<rect x="314.7" y="47.3" style="clip-path:url(#SVGID_00000042736691942306583070000002932673905639803835_);fill:#FF0000;" width="42.8" height="118.5"/>
		</g>
		<g>
			<defs>
				<rect id="SVGID_00000145030984267374508820000003175677815699847849_" width="922.3" height="182.3"/>
			</defs>
			<clipPath id="SVGID_00000109032044979117579510000003949853197348959151_">
				<use xlink:href="#SVGID_00000145030984267374508820000003175677815699847849_"  style="overflow:visible;"/>
			</clipPath>
			<path style="clip-path:url(#SVGID_00000109032044979117579510000003949853197348959151_);fill:#FF0000;" d="M480.5,68.2
				c-3.6-12.1-14.8-21-28-21h-63c-10.3,0.7-18.4,9.4-18.4,19.9v98.6h42.8V78h19.6v0c2.8,0,5,2.2,5,5h0v82.7h43.2V76.4
				c0,0-0.2-4.3-0.7-6.4C480.8,69.4,480.7,68.8,480.5,68.2"/>
		</g>
		<g>
			<defs>
				<rect id="SVGID_00000116200963901012048370000005349679969153781643_" width="922.3" height="182.3"/>
			</defs>
			<clipPath id="SVGID_00000011731229442634358310000004175156544191643532_">
				<use xlink:href="#SVGID_00000116200963901012048370000005349679969153781643_"  style="overflow:visible;"/>
			</clipPath>
			<path style="clip-path:url(#SVGID_00000011731229442634358310000004175156544191643532_);fill:#FF0000;" d="M796.8,70
				c-0.1-0.6-0.3-1.2-0.5-1.8c-3.6-12.1-14.8-21-28-21l-130.2,0c-10.3,0.7-18.6,9.4-18.6,20v98.6h42.8V78h19.6v0c2.8,0,5,2.2,5,5h0
				v82.7h43.2v-41.4V78h19.2v0c2.8,0,5,2.2,5,5h0v82.7h43.1l0-89.3C797.3,74.3,797.2,72.1,796.8,70"/>
		</g>
		<g>
			<defs>
				<rect id="SVGID_00000065068415087988011120000011376756135761817530_" width="922.3" height="182.3"/>
			</defs>
			<clipPath id="SVGID_00000132788919174375982640000011388128073382144398_">
				<use xlink:href="#SVGID_00000065068415087988011120000011376756135761817530_"  style="overflow:visible;"/>
			</clipPath>
			<path style="clip-path:url(#SVGID_00000132788919174375982640000011388128073382144398_);fill:#FF0000;" d="M576.7,47.2h-61.5
				c-11,0-19.8,8.7-19.8,19.7v69.7c0,0,0.2,4.3,0.7,6.4c0.1,0.6,0.2,1.2,0.5,1.8c3.6,12.1,14.8,21,28,21l42.5,0h38.9v-30.8h-62.3v0
				c-2.8,0-5-2.2-5-5h0v-10h67.3V76.5C605.9,60.3,592.8,47.2,576.7,47.2 M573.4,89.5h-35.8V78.1h0v0l26.1,0c5.2,0,9.2,4,9.6,8.5
				C573.4,87.4,573.5,87.7,573.4,89.5"/>
		</g>
		<g>
			<defs>
				<rect id="SVGID_00000083776131224931929830000006603075920658750342_" width="922.3" height="182.3"/>
			</defs>
			<clipPath id="SVGID_00000038414409510235673290000007285541455959977344_">
				<use xlink:href="#SVGID_00000083776131224931929830000006603075920658750342_"  style="overflow:visible;"/>
			</clipPath>
			<path style="clip-path:url(#SVGID_00000038414409510235673290000007285541455959977344_);fill:#FF0000;" d="M921.7,70
				c-0.1-0.6-0.3-1.2-0.5-1.8c-3.6-12.1-14.8-21-28-21l-52.8,0c-13.2,0-24.4,8.9-28,21c-0.2,0.6-0.4,1.2-0.5,1.8
				c-0.5,2-0.7,4.1-0.7,6.2h0l-0.1,59.3l0,0.9l0,0.1v0.1h0c0,16.2,13.1,29.3,29.2,29.3v0l0,0h25.7l0-30.8h-6.8c-2.7,0-4.8-2.1-5-4.7
				V78.1h19.8c2.8,0,5,2.2,5,5v82.7h43.2V76.4C922.3,76.4,922.1,72.1,921.7,70"/>
		</g>
		<g>
			<defs>
				<rect id="SVGID_00000097497798460438161810000011272819990160376709_" width="922.3" height="182.3"/>
			</defs>
			<clipPath id="SVGID_00000093157477210402764820000017388110466205565853_">
				<use xlink:href="#SVGID_00000097497798460438161810000011272819990160376709_"  style="overflow:visible;"/>
			</clipPath>
			<path style="clip-path:url(#SVGID_00000093157477210402764820000017388110466205565853_);fill:#FF0000;" d="M357.4,26.2
				c0-11-8.9-19.8-19.9-19.8h-23v30.8h42.9L357.4,26.2L357.4,26.2z"/>
		</g>
		<g>
			<defs>
				<rect id="SVGID_00000086678002557044250170000004717115852622060471_" width="922.3" height="182.3"/>
			</defs>
			<clipPath id="SVGID_00000163786426010908401000000012796696376460412052_">
				<use xlink:href="#SVGID_00000086678002557044250170000004717115852622060471_"  style="overflow:visible;"/>
			</clipPath>
			<path style="clip-path:url(#SVGID_00000163786426010908401000000012796696376460412052_);fill:#B0B1B1;" d="M22.1,226.9
				c-1.3-0.6-3.7-1.3-7.1-2c-3.4-0.8-5.6-1.5-6.4-2.3c-0.8-0.8-1.2-1.7-1.2-2.8c0-1.3,0.6-2.5,1.8-3.4c1.2-0.9,3.1-1.4,5.6-1.4
				c2.5,0,4.3,0.5,5.6,1.6c1.3,1,2,2.6,2.2,4.6l4.1-0.3c-0.1-1.9-0.6-3.6-1.6-5.1s-2.4-2.6-4.2-3.4c-1.8-0.8-3.9-1.2-6.3-1.2
				c-2.2,0-4.1,0.4-5.9,1.1c-1.8,0.7-3.1,1.8-4,3.2c-0.9,1.4-1.4,2.9-1.4,4.5c0,1.5,0.4,2.8,1.1,4c0.8,1.2,1.9,2.2,3.4,3
				c1.2,0.6,3.2,1.3,6.2,2c2.9,0.7,4.9,1.2,5.7,1.6c1.3,0.5,2.3,1.2,2.9,1.9c0.6,0.8,0.9,1.6,0.9,2.6c0,1-0.3,1.9-0.9,2.8
				c-0.6,0.8-1.5,1.5-2.8,2c-1.2,0.5-2.7,0.7-4.3,0.7c-1.8,0-3.5-0.3-4.9-0.9c-1.5-0.6-2.5-1.5-3.2-2.5c-0.7-1-1.1-2.3-1.3-4l-4,0.4
				c0.1,2.2,0.6,4.1,1.8,5.8c1.1,1.7,2.7,3,4.6,3.8c2,0.8,4.4,1.3,7.3,1.3c2.3,0,4.4-0.4,6.2-1.3c1.8-0.8,3.2-2,4.2-3.5
				c1-1.5,1.5-3.1,1.5-4.8c0-1.7-0.4-3.2-1.3-4.6C25.4,228.9,24,227.8,22.1,226.9"/>
		</g>
		<g>
			<defs>
				<rect id="SVGID_00000050664290559948697280000005317191318753227150_" width="922.3" height="182.3"/>
			</defs>
			<clipPath id="SVGID_00000111155735189667777380000006127703266095751558_">
				<use xlink:href="#SVGID_00000050664290559948697280000005317191318753227150_"  style="overflow:visible;"/>
			</clipPath>
			<path style="clip-path:url(#SVGID_00000111155735189667777380000006127703266095751558_);fill:#B0B1B1;" d="M15.7,245.4
				c-3,0-5.6-0.5-7.7-1.4c-2.1-0.9-3.8-2.3-5.1-4.2c-1.2-1.8-1.9-4-1.9-6.3l0-1l6-0.5l0.1,1c0.2,1.4,0.6,2.6,1.2,3.5
				c0.6,0.9,1.5,1.6,2.8,2.1c1.3,0.6,2.8,0.9,4.5,0.9c1.5,0,2.8-0.2,3.9-0.7c1.1-0.4,1.8-1,2.3-1.6c0.5-0.7,0.7-1.4,0.7-2.2
				s-0.2-1.4-0.7-2c-0.5-0.6-1.3-1.1-2.5-1.6c-0.8-0.3-2.7-0.8-5.6-1.5c-3.1-0.7-5.2-1.4-6.4-2.1c-1.7-0.9-3-2-3.8-3.3
				c-0.8-1.3-1.3-2.9-1.3-4.5c0-1.8,0.5-3.5,1.6-5.1c1-1.6,2.5-2.8,4.5-3.6c1.9-0.8,4-1.2,6.3-1.2c2.5,0,4.8,0.4,6.7,1.2
				c2,0.8,3.6,2.1,4.7,3.8c1.1,1.6,1.7,3.5,1.8,5.6l0,1l-6,0.5l-0.1-1c-0.2-1.8-0.8-3-1.9-3.9c-1.1-0.9-2.7-1.3-5-1.3
				c-2.3,0-4,0.4-5,1.2c-0.9,0.7-1.4,1.6-1.4,2.6c0,0.9,0.3,1.5,0.9,2.1c0.4,0.4,1.7,1.1,6,2.1c3.6,0.8,6,1.5,7.3,2.1v0
				c2,0.9,3.6,2.2,4.6,3.6c1,1.5,1.5,3.2,1.5,5.1c0,1.9-0.6,3.7-1.6,5.4c-1.1,1.7-2.7,3-4.7,3.9C20.4,244.9,18.2,245.4,15.7,245.4"
				/>
		</g>
		<g>
			<defs>
				<rect id="SVGID_00000080906162370540467660000015182288354504042922_" width="922.3" height="182.3"/>
			</defs>
			<clipPath id="SVGID_00000041272727382655047830000002519494341979717278_">
				<use xlink:href="#SVGID_00000080906162370540467660000015182288354504042922_"  style="overflow:visible;"/>
			</clipPath>
			
				<rect x="43.3" y="211.7" style="clip-path:url(#SVGID_00000041272727382655047830000002519494341979717278_);fill:#B0B1B1;" width="4.2" height="32.1"/>
		</g>
		<g>
			<defs>
				<rect id="SVGID_00000108996371500846375570000008180612329286481820_" width="922.3" height="182.3"/>
			</defs>
			<clipPath id="SVGID_00000104676469850643834760000000702895206458592393_">
				<use xlink:href="#SVGID_00000108996371500846375570000008180612329286481820_"  style="overflow:visible;"/>
			</clipPath>
			
				<rect x="42.3" y="210.7" style="clip-path:url(#SVGID_00000104676469850643834760000000702895206458592393_);fill:#B0B1B1;" width="6.3" height="34.2"/>
		</g>
		<g>
			<defs>
				<rect id="SVGID_00000048489023787323705940000012143611451373988508_" width="922.3" height="182.3"/>
			</defs>
			<clipPath id="SVGID_00000090265145500755684230000013412393578663040912_">
				<use xlink:href="#SVGID_00000048489023787323705940000012143611451373988508_"  style="overflow:visible;"/>
			</clipPath>
			<polygon style="clip-path:url(#SVGID_00000090265145500755684230000013412393578663040912_);fill:#B0B1B1;" points="85.5,236.9 
				68.6,211.7 64.2,211.7 64.2,243.8 68.3,243.8 68.3,218.6 85.2,243.8 89.5,243.8 89.5,211.7 85.5,211.7 			"/>
		</g>
		<g>
			<defs>
				<rect id="SVGID_00000101803708010941905600000013742575081901784752_" width="922.3" height="182.3"/>
			</defs>
			<clipPath id="SVGID_00000078744075886602806950000013971495948255322277_">
				<use xlink:href="#SVGID_00000101803708010941905600000013742575081901784752_"  style="overflow:visible;"/>
			</clipPath>
			<polygon style="clip-path:url(#SVGID_00000078744075886602806950000013971495948255322277_);fill:#B0B1B1;" points="90.6,244.8 
				84.6,244.8 69.3,221.9 69.3,244.8 63.2,244.8 63.2,210.7 69.1,210.7 84.4,233.6 84.4,210.7 90.6,210.7 			"/>
		</g>
		<g>
			<defs>
				<rect id="SVGID_00000098909478187000692840000005938643593608327865_" width="922.3" height="182.3"/>
			</defs>
			<clipPath id="SVGID_00000051357031386422020120000016682910619179879047_">
				<use xlink:href="#SVGID_00000098909478187000692840000005938643593608327865_"  style="overflow:visible;"/>
			</clipPath>
			<path style="clip-path:url(#SVGID_00000051357031386422020120000016682910619179879047_);fill:#B0B1B1;" d="M125.4,238.7
				c-1.6,1.4-3.7,2.1-6.1,2.1c-2,0-3.8-0.5-5.5-1.5c-1.7-1-2.9-2.5-3.7-4.6c-0.8-2-1.2-4.4-1.2-7.2c0-2.1,0.3-4.2,1-6.2
				c0.7-2,1.8-3.6,3.5-4.8c1.7-1.2,3.7-1.8,6.2-1.8c2.1,0,3.9,0.5,5.4,1.6c1.4,1.1,2.5,2.8,3.2,5.1l4.2-1c-0.9-3-2.4-5.3-4.6-6.9
				c-2.2-1.6-4.9-2.5-8.1-2.5c-2.8,0-5.4,0.7-7.8,1.9c-2.4,1.3-4.2,3.2-5.5,5.7c-1.3,2.5-1.9,5.4-1.9,8.8c0,3.1,0.6,5.9,1.7,8.6
				c1.1,2.7,2.8,4.7,4.9,6.1c2.2,1.4,5,2.1,8.4,2.1c3.3,0,6.2-0.9,8.5-2.8c2.3-1.8,3.9-4.5,4.8-8l-4.2-1.1
				C128.2,235.3,127.1,237.3,125.4,238.7"/>
		</g>
		<g>
			<defs>
				<rect id="SVGID_00000041270807566263491880000012189857881141964216_" width="922.3" height="182.3"/>
			</defs>
			<clipPath id="SVGID_00000037665338051017327070000016297241618315579807_">
				<use xlink:href="#SVGID_00000041270807566263491880000012189857881141964216_"  style="overflow:visible;"/>
			</clipPath>
			<path style="clip-path:url(#SVGID_00000037665338051017327070000016297241618315579807_);fill:#B0B1B1;" d="M119.8,245.4
				c-3.6,0-6.7-0.8-9-2.3c-2.3-1.5-4.1-3.7-5.3-6.6c-1.2-2.8-1.8-5.8-1.8-9c0-3.5,0.7-6.6,2-9.2c1.4-2.7,3.3-4.7,5.9-6.1
				c2.5-1.4,5.3-2.1,8.3-2.1c3.4,0,6.4,0.9,8.7,2.7c2.4,1.8,4,4.3,4.9,7.4l0.3,1l-6.1,1.5l-0.3-0.9c-0.7-2.1-1.6-3.7-2.9-4.6
				c-1.2-0.9-2.8-1.4-4.7-1.4c-2.2,0-4.1,0.5-5.6,1.6c-1.5,1.1-2.5,2.5-3.1,4.3c-0.6,1.9-1,3.8-1,5.8c0,2.6,0.4,4.9,1.1,6.8
				c0.7,1.8,1.8,3.2,3.3,4.1c1.5,0.9,3.2,1.4,4.9,1.4c2.1,0,3.9-0.6,5.4-1.8c1.5-1.2,2.5-3.1,3-5.5l0.2-1l6.3,1.6l-0.3,1
				c-0.9,3.7-2.7,6.6-5.2,8.5C126.4,244.4,123.3,245.4,119.8,245.4"/>
		</g>
		<g>
			<defs>
				<rect id="SVGID_00000034796832260881327340000018274462624285632905_" width="922.3" height="182.3"/>
			</defs>
			<clipPath id="SVGID_00000021806256894575830400000016768369527230988436_">
				<use xlink:href="#SVGID_00000034796832260881327340000018274462624285632905_"  style="overflow:visible;"/>
			</clipPath>
			<polygon style="clip-path:url(#SVGID_00000021806256894575830400000016768369527230988436_);fill:#B0B1B1;" points="151.8,229.1 
				169.6,229.1 169.6,225.3 151.8,225.3 151.8,215.5 170.8,215.5 170.8,211.7 147.6,211.7 147.6,243.8 171.6,243.8 171.6,240 
				151.8,240 			"/>
		</g>
		<g>
			<defs>
				<rect id="SVGID_00000155840690436118738050000002514003898564350645_" width="922.3" height="182.3"/>
			</defs>
			<clipPath id="SVGID_00000067919155937445039930000012997812924380539784_">
				<use xlink:href="#SVGID_00000155840690436118738050000002514003898564350645_"  style="overflow:visible;"/>
			</clipPath>
			<polygon style="clip-path:url(#SVGID_00000067919155937445039930000012997812924380539784_);fill:#B0B1B1;" points="172.6,244.8 
				146.6,244.8 146.6,210.7 171.8,210.7 171.8,216.5 152.9,216.5 152.9,224.3 170.6,224.3 170.6,230.1 152.9,230.1 152.9,239 
				172.6,239 			"/>
		</g>
		<g>
			<defs>
				<rect id="SVGID_00000043437079639057838780000008726670338933879954_" width="922.3" height="182.3"/>
			</defs>
			<clipPath id="SVGID_00000069381259906622203230000008750389637916703387_">
				<use xlink:href="#SVGID_00000043437079639057838780000008726670338933879954_"  style="overflow:visible;"/>
			</clipPath>
			<path style="clip-path:url(#SVGID_00000069381259906622203230000008750389637916703387_);fill:#B0B1B1;" d="M215.5,215.9
				c-1.6,1.5-3.6,2.7-5.8,3.8v3.8c1.2-0.5,2.6-1.1,4.1-2c1.5-0.9,2.8-1.8,3.7-2.7v25.1h3.9v-32.3H219
				C218.3,212.9,217.1,214.4,215.5,215.9"/>
		</g>
		<g>
			<defs>
				<rect id="SVGID_00000110470315979389993870000004977109061392783755_" width="922.3" height="182.3"/>
			</defs>
			<clipPath id="SVGID_00000182505629906032556250000014513562060347333055_">
				<use xlink:href="#SVGID_00000110470315979389993870000004977109061392783755_"  style="overflow:visible;"/>
			</clipPath>
			<path style="clip-path:url(#SVGID_00000182505629906032556250000014513562060347333055_);fill:#B0B1B1;" d="M222.6,244.8h-6v-24
				c-0.7,0.5-1.4,1-2.2,1.4c-1.6,0.9-3,1.6-4.3,2.1l-1.4,0.5V219l0.6-0.3c2.1-1,4-2.2,5.5-3.6c1.5-1.4,2.6-2.7,3.3-4l0.3-0.6h4.2
				L222.6,244.8L222.6,244.8z"/>
		</g>
		<g>
			<defs>
				<rect id="SVGID_00000131343650405688365750000017086588333238491278_" width="922.3" height="182.3"/>
			</defs>
			<clipPath id="SVGID_00000026843007408174491230000018340198752804298171_">
				<use xlink:href="#SVGID_00000131343650405688365750000017086588333238491278_"  style="overflow:visible;"/>
			</clipPath>
			<path style="clip-path:url(#SVGID_00000026843007408174491230000018340198752804298171_);fill:#B0B1B1;" d="M256.7,213.3
				c-1.7-1.1-3.6-1.7-5.7-1.7c-2.9,0-5.3,1-7.2,3c-1.9,2-2.9,4.6-2.9,7.9c0,3.2,0.9,5.7,2.8,7.6c1.8,1.9,4.1,2.9,6.8,2.9
				c1.6,0,3.1-0.4,4.4-1.2c1.4-0.8,2.5-1.8,3.2-3l0,0.8c0,1.6-0.2,3.2-0.6,4.8c-0.4,1.6-0.9,2.8-1.5,3.8c-0.6,0.9-1.3,1.7-2.2,2.2
				s-2,0.8-3.2,0.8c-1.4,0-2.6-0.4-3.5-1.2c-0.9-0.8-1.5-2.1-1.8-3.9l-3.8,0.3c0.3,2.5,1.3,4.5,2.9,5.9c1.6,1.4,3.6,2.1,6.2,2.1
				c2.4,0,4.4-0.6,6.2-1.9s3.1-3.1,4-5.6s1.3-5.7,1.3-9.8c0-3.9-0.5-7-1.3-9C259.7,216,258.4,214.4,256.7,213.3 M255.8,227.5
				c-1.2,1.3-2.7,1.9-4.5,1.9c-1.8,0-3.3-0.7-4.6-1.9c-1.2-1.3-1.9-2.9-1.9-5c0-2.3,0.7-4.1,2-5.6c1.3-1.4,2.8-2.2,4.6-2.2
				c1.7,0,3.1,0.7,4.4,2c1.2,1.3,1.8,3.1,1.8,5.4C257.6,224.5,257,226.3,255.8,227.5"/>
		</g>
		<g>
			<defs>
				<rect id="SVGID_00000083778272661652320790000000522657727076985237_" width="922.3" height="182.3"/>
			</defs>
			<clipPath id="SVGID_00000013178795817028459220000010315588420420262321_">
				<use xlink:href="#SVGID_00000083778272661652320790000000522657727076985237_"  style="overflow:visible;"/>
			</clipPath>
			<path style="clip-path:url(#SVGID_00000013178795817028459220000010315588420420262321_);fill:#B0B1B1;" d="M250.5,245.4
				c-2.8,0-5-0.8-6.8-2.3c-1.8-1.5-2.9-3.8-3.2-6.5l-0.1-1l5.8-0.5l0.2,0.9c0.3,1.5,0.8,2.7,1.5,3.3c0.7,0.6,1.6,0.9,2.8,0.9
				c1,0,1.9-0.2,2.7-0.7c0.8-0.5,1.4-1.1,1.9-1.9c0.5-0.8,1-2,1.3-3.5c0.2-0.8,0.4-1.7,0.5-2.5c-0.5,0.4-1,0.8-1.6,1.1
				c-1.5,0.9-3.2,1.3-4.9,1.3c-2.9,0-5.5-1.1-7.5-3.2c-2-2.1-3-4.9-3-8.3c0-3.5,1.1-6.4,3.2-8.6c2.1-2.2,4.8-3.3,8-3.3
				c2.3,0,4.4,0.6,6.3,1.8c1.9,1.2,3.4,3,4.3,5.3c1,2.2,1.4,5.3,1.4,9.4c0,4.2-0.5,7.6-1.4,10.2c-1,2.6-2.4,4.7-4.3,6
				C255.3,244.7,253,245.4,250.5,245.4 M251.4,215.8c-1.5,0-2.7,0.6-3.8,1.8c-1.1,1.2-1.7,2.8-1.7,4.9c0,1.8,0.5,3.2,1.6,4.3
				c1,1.1,2.3,1.6,3.8,1.6c1.5,0,2.8-0.5,3.8-1.6c1-1.1,1.5-2.6,1.5-4.6c0-2-0.5-3.6-1.5-4.7C254,216.4,252.9,215.8,251.4,215.8"/>
		</g>
		<g>
			<defs>
				<rect id="SVGID_00000052819452071096062180000011363448987536063927_" width="922.3" height="182.3"/>
			</defs>
			<clipPath id="SVGID_00000107556548620659103230000005121514191068777863_">
				<use xlink:href="#SVGID_00000052819452071096062180000011363448987536063927_"  style="overflow:visible;"/>
			</clipPath>
			<path style="clip-path:url(#SVGID_00000107556548620659103230000005121514191068777863_);fill:#B0B1B1;" d="M275.3,215.9H291
				c-2,2.3-3.9,5.1-5.7,8.4c-1.8,3.3-3.1,6.8-4.1,10.3c-0.9,3.6-1.5,6.6-1.5,9.2h4c0.2-3.2,0.7-6.2,1.5-8.8
				c1.1-3.8,2.6-7.5,4.7-11.1c2-3.6,4-6.5,6.1-8.7v-3.1h-20.8V215.9z"/>
		</g>
		<g>
			<defs>
				<rect id="SVGID_00000129889974866327174600000016646081781411461554_" width="922.3" height="182.3"/>
			</defs>
			<clipPath id="SVGID_00000020379864494500329550000006757524702214161047_">
				<use xlink:href="#SVGID_00000129889974866327174600000016646081781411461554_"  style="overflow:visible;"/>
			</clipPath>
			<path style="clip-path:url(#SVGID_00000020379864494500329550000006757524702214161047_);fill:#B0B1B1;" d="M284.8,244.8h-6l0-1
				c0-2.6,0.6-5.8,1.5-9.4c1-3.6,2.4-7.2,4.2-10.6c1.4-2.6,2.9-4.9,4.4-6.9h-14.6v-5.8h22.8v4.5l-0.3,0.3c-2,2.1-4,5-5.9,8.5
				c-2,3.5-3.5,7.2-4.6,10.9c-0.8,2.6-1.3,5.5-1.5,8.6L284.8,244.8z"/>
		</g>
		<g>
			<defs>
				<rect id="SVGID_00000152965348219468596120000011522395891357649813_" width="922.3" height="182.3"/>
			</defs>
			<clipPath id="SVGID_00000115496146579145935660000017110995644794754951_">
				<use xlink:href="#SVGID_00000152965348219468596120000011522395891357649813_"  style="overflow:visible;"/>
			</clipPath>
			<path style="clip-path:url(#SVGID_00000115496146579145935660000017110995644794754951_);fill:#B0B1B1;" d="M318,215.9
				c-1.6,1.5-3.6,2.7-5.8,3.8v3.8c1.2-0.5,2.6-1.1,4.1-2c1.5-0.9,2.8-1.8,3.7-2.7v25.1h3.9v-32.3h-2.5
				C320.8,212.9,319.6,214.4,318,215.9"/>
		</g>
		<g>
			<defs>
				<rect id="SVGID_00000071534940711169724380000017190886990625209735_" width="922.3" height="182.3"/>
			</defs>
			<clipPath id="SVGID_00000083079676759769399140000016403641330000457627_">
				<use xlink:href="#SVGID_00000071534940711169724380000017190886990625209735_"  style="overflow:visible;"/>
			</clipPath>
			<path style="clip-path:url(#SVGID_00000083079676759769399140000016403641330000457627_);fill:#B0B1B1;" d="M325,244.8h-6v-24
				c-0.7,0.5-1.4,1-2.2,1.4c-1.6,0.9-3,1.6-4.3,2.1l-1.4,0.5V219l0.6-0.3c2.1-1,4-2.2,5.5-3.6c1.5-1.4,2.6-2.7,3.3-4l0.3-0.6h4.2
				V244.8z"/>
		</g>
		<g>
			<defs>
				<rect id="SVGID_00000155838542875459708080000003845375424793264790_" width="922.3" height="182.3"/>
			</defs>
			<clipPath id="SVGID_00000078043691913585450070000006124681215842923434_">
				<use xlink:href="#SVGID_00000155838542875459708080000003845375424793264790_"  style="overflow:visible;"/>
			</clipPath>
			<polygon style="clip-path:url(#SVGID_00000078043691913585450070000006124681215842923434_);fill:#B0B1B1;" points="366.8,243.8 
				371.1,243.8 371.1,229.2 386.1,229.2 386.1,225.4 371.1,225.4 371.1,215.5 388.5,215.5 388.5,211.7 366.8,211.7 			"/>
		</g>
		<g>
			<defs>
				<rect id="SVGID_00000113348582997077689960000018208813709996368047_" width="922.3" height="182.3"/>
			</defs>
			<clipPath id="SVGID_00000116217341313358881770000015139051298945862816_">
				<use xlink:href="#SVGID_00000113348582997077689960000018208813709996368047_"  style="overflow:visible;"/>
			</clipPath>
			<polygon style="clip-path:url(#SVGID_00000116217341313358881770000015139051298945862816_);fill:#B0B1B1;" points="372.1,244.8 
				365.8,244.8 365.8,210.7 389.5,210.7 389.5,216.5 372.1,216.5 372.1,224.4 387.2,224.4 387.2,230.2 372.1,230.2 			"/>
		</g>
		<g>
			<defs>
				<rect id="SVGID_00000098932915095314720270000005252650706222938292_" width="922.3" height="182.3"/>
			</defs>
			<clipPath id="SVGID_00000165932825479165577540000017099488407720015768_">
				<use xlink:href="#SVGID_00000098932915095314720270000005252650706222938292_"  style="overflow:visible;"/>
			</clipPath>
			<path style="clip-path:url(#SVGID_00000165932825479165577540000017099488407720015768_);fill:#B0B1B1;" d="M425.3,213.3
				c-2.4-1.4-5-2.1-8-2.1c-4.5,0-8.2,1.5-11.1,4.5c-2.9,3-4.3,7.2-4.3,12.5c0,2.8,0.6,5.5,1.8,8c1.2,2.5,3,4.5,5.4,6
				s5.1,2.2,8.1,2.2c2.8,0,5.4-0.7,7.8-2c2.4-1.3,4.3-3.3,5.6-5.8c1.3-2.6,2-5.5,2-8.8c0-3.2-0.6-6.1-1.9-8.6
				C429.5,216.6,427.7,214.7,425.3,213.3 M425.2,237.4c-2.1,2.2-4.7,3.4-7.9,3.4c-3.1,0-5.8-1.1-7.8-3.3c-2.1-2.2-3.1-5.3-3.1-9.2
				c0-4.8,1.1-8.3,3.2-10.3c2.2-2.1,4.8-3.1,7.8-3.1c2.1,0,4,0.5,5.7,1.6c1.7,1.1,3,2.6,3.9,4.5c0.9,1.9,1.3,4.2,1.3,6.8
				C428.3,231.9,427.2,235.1,425.2,237.4"/>
		</g>
		<g>
			<defs>
				<rect id="SVGID_00000077323873323433986580000013409925931989734312_" width="922.3" height="182.3"/>
			</defs>
			<clipPath id="SVGID_00000140719175619972158580000002224171538075875507_">
				<use xlink:href="#SVGID_00000077323873323433986580000013409925931989734312_"  style="overflow:visible;"/>
			</clipPath>
			<path style="clip-path:url(#SVGID_00000140719175619972158580000002224171538075875507_);fill:#B0B1B1;" d="M417.3,245.4
				c-3.2,0-6.1-0.8-8.6-2.3c-2.5-1.5-4.5-3.7-5.8-6.4c-1.3-2.7-1.9-5.5-1.9-8.5c0-5.6,1.5-10,4.6-13.2c3-3.2,7-4.8,11.8-4.8
				c3.1,0,6,0.8,8.5,2.3c2.5,1.5,4.5,3.7,5.8,6.3c1.3,2.7,2,5.7,2,9.1c0,3.4-0.7,6.5-2.1,9.2c-1.4,2.8-3.4,4.9-6,6.3
				C423,244.7,420.2,245.4,417.3,245.4 M417.3,215.8c-2.8,0-5.1,0.9-7.1,2.8c-2,1.9-2.9,5.1-2.9,9.6c0,3.6,1,6.4,2.9,8.5
				c1.9,2,4.2,3,7.1,3c2.9,0,5.3-1,7.1-3c1.9-2,2.8-5,2.8-8.9c0-2.5-0.4-4.6-1.2-6.4c-0.8-1.8-2-3.1-3.5-4.1
				C421,216.3,419.2,215.8,417.3,215.8"/>
		</g>
		<g>
			<defs>
				<rect id="SVGID_00000157284210777788293530000000708349323909982599_" width="922.3" height="182.3"/>
			</defs>
			<clipPath id="SVGID_00000145742211283317842290000010836979802749543567_">
				<use xlink:href="#SVGID_00000157284210777788293530000000708349323909982599_"  style="overflow:visible;"/>
			</clipPath>
			<path style="clip-path:url(#SVGID_00000145742211283317842290000010836979802749543567_);fill:#B0B1B1;" d="M466.6,230.8
				c-0.6-0.5-1.4-1.1-2.6-1.6c3.1-0.4,5.4-1.4,6.8-3c1.5-1.6,2.2-3.5,2.2-5.8c0-1.8-0.5-3.4-1.3-4.8c-0.9-1.5-2.1-2.5-3.6-3
				c-1.5-0.6-3.7-0.9-6.5-0.9h-14.2v32.1h4.3v-14.3h4.9c1.1,0,1.9,0,2.4,0.2c0.7,0.2,1.3,0.5,1.9,0.8c0.6,0.4,1.3,1.1,2.2,2.2
				c0.8,1,1.8,2.5,3.1,4.4l4.2,6.7h5.3l-5.6-8.8C469,233.4,467.8,231.9,466.6,230.8 M460.8,225.9h-9.1v-10.6h10.2
				c2.4,0,4.1,0.5,5.2,1.5c1.1,1,1.7,2.2,1.7,3.8c0,1-0.3,2-0.9,2.9s-1.4,1.5-2.5,1.9C464.2,225.7,462.7,225.9,460.8,225.9"/>
		</g>
		<g>
			<defs>
				<rect id="SVGID_00000054254986490498782230000008237300619842688931_" width="922.3" height="182.3"/>
			</defs>
			<clipPath id="SVGID_00000119824332400860172950000014464416150697559483_">
				<use xlink:href="#SVGID_00000054254986490498782230000008237300619842688931_"  style="overflow:visible;"/>
			</clipPath>
			<path style="clip-path:url(#SVGID_00000119824332400860172950000014464416150697559483_);fill:#B0B1B1;" d="M477.6,244.8h-7.8
				l-4.5-7.2c-1.2-1.9-2.2-3.4-3-4.3c-0.7-0.9-1.4-1.6-1.9-1.9l-1.6-0.7c-0.3-0.1-0.9-0.1-2.1-0.1h-3.9v14.3h-6.3v-34.2h15.3
				c3,0,5.3,0.3,6.9,0.9c1.7,0.7,3.1,1.8,4.1,3.5c1,1.6,1.5,3.4,1.5,5.4c0,2.5-0.8,4.7-2.5,6.5c-1.2,1.2-2.8,2.2-4.8,2.7l0.5,0.4
				l0,0c1.3,1.2,2.5,2.7,3.7,4.5L477.6,244.8z M452.7,224.9h8.1c1.8,0,3.2-0.2,4.2-0.5c0.9-0.3,1.5-0.8,2-1.5
				c0.5-0.7,0.7-1.5,0.7-2.3c0-1.2-0.4-2.2-1.3-3c-0.9-0.8-2.4-1.2-4.5-1.2h-9.2V224.9z"/>
		</g>
		<g>
			<defs>
				<rect id="SVGID_00000165196043947656535410000013158753984789504941_" width="922.3" height="182.3"/>
			</defs>
			<clipPath id="SVGID_00000183963758577831496030000014728183192008707244_">
				<use xlink:href="#SVGID_00000165196043947656535410000013158753984789504941_"  style="overflow:visible;"/>
			</clipPath>
			<path style="clip-path:url(#SVGID_00000183963758577831496030000014728183192008707244_);fill:#B0B1B1;" d="M524.8,221.1
				c-1.4,2.1-2.5,4-3.5,5.7c-1-1.8-2.1-3.6-3.3-5.4l-6.3-9.7h-5.2l12.4,18.5v13.6h4.2v-13.6l12.8-18.5h-5L524.8,221.1z"/>
		</g>
		<g>
			<defs>
				<rect id="SVGID_00000105400121707273181550000017298142282259327377_" width="922.3" height="182.3"/>
			</defs>
			<clipPath id="SVGID_00000018225269876390423530000011196683426785439933_">
				<use xlink:href="#SVGID_00000105400121707273181550000017298142282259327377_"  style="overflow:visible;"/>
			</clipPath>
			<path style="clip-path:url(#SVGID_00000018225269876390423530000011196683426785439933_);fill:#B0B1B1;" d="M524.1,244.8h-6.3
				v-14.3l-13.3-19.8h7.6l6.6,10.1c0.8,1.3,1.7,2.6,2.4,4c0.8-1.3,1.7-2.7,2.6-4.2l6.5-9.9h7.5l-13.7,19.8L524.1,244.8L524.1,244.8z
				"/>
		</g>
		<g>
			<defs>
				<rect id="SVGID_00000115475729131698519130000001382584192175458697_" width="922.3" height="182.3"/>
			</defs>
			<clipPath id="SVGID_00000160153417091705630100000000040519150378158466_">
				<use xlink:href="#SVGID_00000115475729131698519130000001382584192175458697_"  style="overflow:visible;"/>
			</clipPath>
			<path style="clip-path:url(#SVGID_00000160153417091705630100000000040519150378158466_);fill:#B0B1B1;" d="M571,213.3
				c-2.4-1.4-5-2.1-8-2.1c-4.5,0-8.2,1.5-11.1,4.5c-2.9,3-4.3,7.2-4.3,12.5c0,2.8,0.6,5.5,1.8,8c1.2,2.5,3,4.5,5.4,6
				c2.4,1.5,5.1,2.2,8.1,2.2c2.8,0,5.4-0.7,7.8-2c2.4-1.3,4.3-3.3,5.6-5.8c1.3-2.6,2-5.5,2-8.8c0-3.2-0.6-6.1-1.9-8.6
				C575.2,216.6,573.4,214.7,571,213.3 M570.9,237.4c-2.1,2.2-4.7,3.4-7.9,3.4c-3.1,0-5.8-1.1-7.8-3.3c-2.1-2.2-3.1-5.3-3.1-9.2
				c0-4.8,1.1-8.3,3.3-10.3s4.8-3.1,7.8-3.1c2.1,0,4,0.5,5.7,1.6c1.7,1.1,3,2.6,3.9,4.5c0.9,1.9,1.3,4.2,1.3,6.8
				C574,231.9,572.9,235.1,570.9,237.4"/>
		</g>
		<g>
			<defs>
				<rect id="SVGID_00000067202669162835863540000006840773968725236363_" width="922.3" height="182.3"/>
			</defs>
			<clipPath id="SVGID_00000158742338267027997050000018353138014899419814_">
				<use xlink:href="#SVGID_00000067202669162835863540000006840773968725236363_"  style="overflow:visible;"/>
			</clipPath>
			<path style="clip-path:url(#SVGID_00000158742338267027997050000018353138014899419814_);fill:#B0B1B1;" d="M563,245.4
				c-3.2,0-6.1-0.8-8.6-2.3c-2.5-1.6-4.5-3.7-5.8-6.4c-1.3-2.7-1.9-5.5-1.9-8.5c0-5.6,1.5-10,4.6-13.2c3-3.2,7-4.8,11.8-4.8
				c3.1,0,6,0.8,8.5,2.3c2.5,1.5,4.5,3.7,5.8,6.3c1.3,2.7,2,5.7,2,9.1c0,3.4-0.7,6.5-2.1,9.2c-1.4,2.8-3.4,4.9-6,6.3
				C568.8,244.7,566,245.4,563,245.4 M563,215.8c-2.8,0-5.1,0.9-7,2.8c-2,1.9-2.9,5.1-2.9,9.6c0,3.6,1,6.4,2.8,8.5
				c1.9,2,4.2,3,7.1,3c2.9,0,5.3-1,7.2-3c1.9-2,2.8-5,2.8-8.9c0-2.5-0.4-4.6-1.2-6.4c-0.8-1.8-2-3.1-3.5-4.1
				C566.7,216.3,565,215.8,563,215.8"/>
		</g>
		<g>
			<defs>
				<rect id="SVGID_00000163065938850567677690000016182426281948034434_" width="922.3" height="182.3"/>
			</defs>
			<clipPath id="SVGID_00000041287080073890343190000011453375864303693498_">
				<use xlink:href="#SVGID_00000163065938850567677690000016182426281948034434_"  style="overflow:visible;"/>
			</clipPath>
			<path style="clip-path:url(#SVGID_00000041287080073890343190000011453375864303693498_);fill:#B0B1B1;" d="M614.1,230.2
				c0,4-0.7,6.8-2,8.2c-1.3,1.4-3.5,2.1-6.7,2.1c-1.8,0-3.4-0.4-4.6-1.1c-1.3-0.7-2.2-1.7-2.7-3c-0.5-1.3-0.8-3.4-0.8-6.2v-18.5
				h-4.2v18.6c0,3.4,0.4,6.1,1.2,8c0.8,2,2.2,3.5,4.1,4.5c1.9,1,4.4,1.6,7.4,1.6c3.1,0,5.6-0.6,7.5-1.8c1.9-1.2,3.2-2.7,4-4.6
				c0.7-1.9,1.1-4.5,1.1-7.7v-18.6h-4.2L614.1,230.2L614.1,230.2z"/>
		</g>
		<g>
			<defs>
				<rect id="SVGID_00000053524212517013159620000010881446281503507890_" width="922.3" height="182.3"/>
			</defs>
			<clipPath id="SVGID_00000136386504599174619610000011795721026011779245_">
				<use xlink:href="#SVGID_00000053524212517013159620000010881446281503507890_"  style="overflow:visible;"/>
			</clipPath>
			<path style="clip-path:url(#SVGID_00000136386504599174619610000011795721026011779245_);fill:#B0B1B1;" d="M605.8,245.4
				c-3.2,0-5.8-0.6-7.9-1.7c-2.1-1.2-3.7-2.8-4.5-5c-0.9-2.1-1.3-4.9-1.3-8.5v-19.6h6.3v19.6c0,2.7,0.2,4.6,0.7,5.8
				c0.4,1.1,1.2,1.9,2.2,2.5c1.1,0.6,2.5,0.9,4.1,0.9c2.8,0,4.8-0.6,5.9-1.8c0.8-0.8,1.7-2.8,1.7-7.5v-19.6h6.3v19.6
				c0,3.3-0.4,6-1.2,8c-0.8,2.1-2.3,3.8-4.4,5.1C611.8,244.7,609.1,245.4,605.8,245.4"/>
		</g>
		<g>
			<defs>
				<rect id="SVGID_00000096768281203928990250000013104673229855202990_" width="922.3" height="182.3"/>
			</defs>
			<clipPath id="SVGID_00000121972720393146271930000001288674431983647911_">
				<use xlink:href="#SVGID_00000096768281203928990250000013104673229855202990_"  style="overflow:visible;"/>
			</clipPath>
			<path style="clip-path:url(#SVGID_00000121972720393146271930000001288674431983647911_);fill:#B0B1B1;" d="M653.9,230.8
				c-0.6-0.5-1.4-1.1-2.6-1.6c3.1-0.4,5.4-1.4,6.8-3c1.5-1.6,2.2-3.5,2.2-5.8c0-1.8-0.5-3.4-1.3-4.8c-0.9-1.5-2.1-2.5-3.6-3
				c-1.5-0.6-3.7-0.9-6.5-0.9h-14.2v32.1h4.2v-14.3h4.9c1.1,0,1.9,0,2.4,0.2c0.7,0.2,1.3,0.5,1.9,0.8c0.6,0.4,1.4,1.1,2.2,2.2
				c0.8,1,1.8,2.5,3.1,4.4l4.2,6.7h5.3l-5.6-8.8C656.3,233.4,655.2,231.9,653.9,230.8 M648.1,225.9H639v-10.6h10.2
				c2.4,0,4.1,0.5,5.2,1.5c1.1,1,1.7,2.2,1.7,3.8c0,1-0.3,2-0.8,2.9c-0.6,0.9-1.4,1.5-2.5,1.9C651.6,225.7,650.1,225.9,648.1,225.9"
				/>
		</g>
		<g>
			<defs>
				<rect id="SVGID_00000078024310337812986160000010014076929080674710_" width="922.3" height="182.3"/>
			</defs>
			<clipPath id="SVGID_00000000195376776580321340000011394932967498978745_">
				<use xlink:href="#SVGID_00000078024310337812986160000010014076929080674710_"  style="overflow:visible;"/>
			</clipPath>
			<path style="clip-path:url(#SVGID_00000000195376776580321340000011394932967498978745_);fill:#B0B1B1;" d="M664.9,244.8h-7.8
				l-4.6-7.2c-1.2-1.9-2.2-3.4-3-4.3c-0.7-0.9-1.4-1.6-1.9-1.9l-1.6-0.7c-0.3-0.1-0.9-0.1-2.1-0.1H640v14.3h-6.3v-34.2H649
				c3,0,5.3,0.3,6.9,0.9c1.7,0.7,3.1,1.8,4.1,3.5c1,1.6,1.5,3.4,1.5,5.4c0,2.5-0.8,4.7-2.5,6.5c-1.2,1.2-2.8,2.2-4.8,2.7l0.5,0.4
				l0,0c1.3,1.2,2.5,2.7,3.7,4.5L664.9,244.8z M640,224.9h8.1c1.8,0,3.2-0.2,4.2-0.5c0.9-0.3,1.5-0.8,2-1.5c0.5-0.7,0.7-1.5,0.7-2.3
				c0-1.2-0.4-2.2-1.3-3c-0.9-0.8-2.4-1.2-4.5-1.2H640L640,224.9L640,224.9z"/>
		</g>
		<g>
			<defs>
				<rect id="SVGID_00000168113780947799893900000010041607187661307809_" width="922.3" height="182.3"/>
			</defs>
			<clipPath id="SVGID_00000014609152766602950590000001721375918903339401_">
				<use xlink:href="#SVGID_00000168113780947799893900000010041607187661307809_"  style="overflow:visible;"/>
			</clipPath>
			<polygon style="clip-path:url(#SVGID_00000014609152766602950590000001721375918903339401_);fill:#B0B1B1;" points="698.2,243.8 
				702.4,243.8 702.4,229.2 717.5,229.2 717.5,225.4 702.4,225.4 702.4,215.5 719.8,215.5 719.8,211.7 698.2,211.7 			"/>
		</g>
		<g>
			<defs>
				<rect id="SVGID_00000158000485427624154090000008759590505959273656_" width="922.3" height="182.3"/>
			</defs>
			<clipPath id="SVGID_00000090258110016701622930000016849925936573640844_">
				<use xlink:href="#SVGID_00000158000485427624154090000008759590505959273656_"  style="overflow:visible;"/>
			</clipPath>
			<polygon style="clip-path:url(#SVGID_00000090258110016701622930000016849925936573640844_);fill:#B0B1B1;" points="703.4,244.8 
				697.1,244.8 697.1,210.7 720.8,210.7 720.8,216.5 703.4,216.5 703.4,224.4 718.5,224.4 718.5,230.2 703.4,230.2 			"/>
		</g>
		<g>
			<defs>
				<rect id="SVGID_00000129892013495561444650000003985169735862344849_" width="922.3" height="182.3"/>
			</defs>
			<clipPath id="SVGID_00000116193051814201848270000009979609481190333374_">
				<use xlink:href="#SVGID_00000129892013495561444650000003985169735862344849_"  style="overflow:visible;"/>
			</clipPath>
			<path style="clip-path:url(#SVGID_00000116193051814201848270000009979609481190333374_);fill:#B0B1B1;" d="M755.6,230.2
				c0,4-0.7,6.8-2,8.2c-1.3,1.4-3.6,2.1-6.7,2.1c-1.8,0-3.4-0.4-4.6-1.1c-1.3-0.7-2.2-1.7-2.7-3c-0.5-1.3-0.8-3.4-0.8-6.2v-18.5
				h-4.2v18.6c0,3.4,0.4,6.1,1.2,8c0.8,2,2.2,3.5,4.1,4.5c1.9,1,4.4,1.6,7.4,1.6c3.1,0,5.6-0.6,7.5-1.8c1.9-1.2,3.2-2.7,4-4.6
				c0.7-1.9,1.1-4.5,1.1-7.7v-18.6h-4.2L755.6,230.2L755.6,230.2z"/>
		</g>
		<g>
			<defs>
				<rect id="SVGID_00000176752710492266812990000010367321347403581625_" width="922.3" height="182.3"/>
			</defs>
			<clipPath id="SVGID_00000138552328161902191520000010767412903169610938_">
				<use xlink:href="#SVGID_00000176752710492266812990000010367321347403581625_"  style="overflow:visible;"/>
			</clipPath>
			<path style="clip-path:url(#SVGID_00000138552328161902191520000010767412903169610938_);fill:#B0B1B1;" d="M747.3,245.4
				c-3.2,0-5.8-0.6-7.9-1.7c-2.1-1.2-3.7-2.8-4.5-5c-0.9-2.1-1.3-4.9-1.3-8.5v-19.6h6.3v19.6c0,2.7,0.2,4.6,0.7,5.8
				c0.4,1.1,1.2,1.9,2.2,2.5c1.1,0.6,2.5,0.9,4.1,0.9c2.8,0,4.8-0.6,5.9-1.8c0.8-0.8,1.7-2.8,1.7-7.5v-19.6h6.3v19.6
				c0,3.4-0.4,6-1.2,8c-0.8,2.1-2.3,3.8-4.4,5.1C753.3,244.7,750.6,245.4,747.3,245.4"/>
		</g>
		<g>
			<defs>
				<rect id="SVGID_00000070807776888941098130000004278337827132207522_" width="922.3" height="182.3"/>
			</defs>
			<clipPath id="SVGID_00000103228547181158975940000010377647797352127887_">
				<use xlink:href="#SVGID_00000070807776888941098130000004278337827132207522_"  style="overflow:visible;"/>
			</clipPath>
			<polygon style="clip-path:url(#SVGID_00000103228547181158975940000010377647797352127887_);fill:#B0B1B1;" points="773.8,215.5 
				784.3,215.5 784.3,243.8 788.6,243.8 788.6,215.5 799.2,215.5 799.2,211.7 773.8,211.7 			"/>
		</g>
		<g>
			<defs>
				<rect id="SVGID_00000140719956601591749760000000636876030548480910_" width="922.3" height="182.3"/>
			</defs>
			<clipPath id="SVGID_00000094576401132483291600000012361538119303306658_">
				<use xlink:href="#SVGID_00000140719956601591749760000000636876030548480910_"  style="overflow:visible;"/>
			</clipPath>
			<polygon style="clip-path:url(#SVGID_00000094576401132483291600000012361538119303306658_);fill:#B0B1B1;" points="789.6,244.8 
				783.3,244.8 783.3,216.5 772.7,216.5 772.7,210.7 800.2,210.7 800.2,216.5 789.6,216.5 			"/>
		</g>
		<g>
			<defs>
				<rect id="SVGID_00000032644054141628903480000013327947102831035825_" width="922.3" height="182.3"/>
			</defs>
			<clipPath id="SVGID_00000147931982414922593590000010502830614482397117_">
				<use xlink:href="#SVGID_00000032644054141628903480000013327947102831035825_"  style="overflow:visible;"/>
			</clipPath>
			<path style="clip-path:url(#SVGID_00000147931982414922593590000010502830614482397117_);fill:#B0B1B1;" d="M833.9,230.2
				c0,4-0.7,6.8-2,8.2c-1.3,1.4-3.6,2.1-6.7,2.1c-1.8,0-3.4-0.4-4.6-1.1c-1.3-0.7-2.2-1.7-2.7-3c-0.5-1.3-0.8-3.4-0.8-6.2v-18.5
				h-4.2v18.6c0,3.4,0.4,6.1,1.2,8c0.8,2,2.2,3.5,4.1,4.5c1.9,1,4.4,1.6,7.4,1.6c3.1,0,5.6-0.6,7.5-1.8c1.9-1.2,3.2-2.7,4-4.6
				c0.7-1.9,1.1-4.5,1.1-7.7v-18.6h-4.2L833.9,230.2L833.9,230.2z"/>
		</g>
		<g>
			<defs>
				<rect id="SVGID_00000094579755219019350590000010605037921013685940_" width="922.3" height="182.3"/>
			</defs>
			<clipPath id="SVGID_00000183928971823441926470000017995878744209161622_">
				<use xlink:href="#SVGID_00000094579755219019350590000010605037921013685940_"  style="overflow:visible;"/>
			</clipPath>
			<path style="clip-path:url(#SVGID_00000183928971823441926470000017995878744209161622_);fill:#B0B1B1;" d="M825.6,245.4
				c-3.2,0-5.8-0.6-7.9-1.7c-2.1-1.2-3.7-2.8-4.5-5c-0.9-2.1-1.3-4.9-1.3-8.5v-19.6h6.3v19.6c0,2.7,0.2,4.6,0.7,5.8
				c0.4,1.1,1.2,1.9,2.2,2.5c1.1,0.6,2.5,0.9,4.1,0.9c2.8,0,4.8-0.6,5.9-1.8c0.8-0.8,1.7-2.8,1.7-7.5v-19.6h6.3v19.6
				c0,3.4-0.4,6-1.2,8c-0.8,2.1-2.3,3.8-4.4,5.1C831.5,244.7,828.8,245.4,825.6,245.4"/>
		</g>
		<g>
			<defs>
				<rect id="SVGID_00000054960271039987560270000015413051742926422448_" width="922.3" height="182.3"/>
			</defs>
			<clipPath id="SVGID_00000081621546987403807670000017498641442895341697_">
				<use xlink:href="#SVGID_00000054960271039987560270000015413051742926422448_"  style="overflow:visible;"/>
			</clipPath>
			<path style="clip-path:url(#SVGID_00000081621546987403807670000017498641442895341697_);fill:#B0B1B1;" d="M873.7,230.8
				c-0.6-0.5-1.4-1.1-2.6-1.6c3.1-0.4,5.4-1.4,6.8-3c1.5-1.6,2.2-3.5,2.2-5.8c0-1.8-0.4-3.4-1.3-4.8c-0.9-1.5-2.1-2.5-3.6-3
				c-1.5-0.6-3.7-0.9-6.5-0.9h-14.2v32.1h4.2v-14.3h4.9c1.1,0,1.9,0,2.4,0.2c0.7,0.2,1.3,0.5,1.9,0.8c0.6,0.4,1.4,1.1,2.2,2.2
				c0.8,1,1.8,2.5,3.1,4.4l4.2,6.7h5.3l-5.6-8.8C876.1,233.4,874.9,231.9,873.7,230.8 M867.8,225.9h-9.1v-10.6h10.2
				c2.4,0,4.1,0.5,5.2,1.5c1.1,1,1.7,2.2,1.7,3.8c0,1-0.3,2-0.8,2.9c-0.6,0.9-1.4,1.5-2.5,1.9C871.3,225.7,869.8,225.9,867.8,225.9"
				/>
		</g>
		<g>
			<defs>
				<rect id="SVGID_00000084488510739235355890000018248565209009458355_" width="922.3" height="182.3"/>
			</defs>
			<clipPath id="SVGID_00000083788284965175185970000000250079985630805172_">
				<use xlink:href="#SVGID_00000084488510739235355890000018248565209009458355_"  style="overflow:visible;"/>
			</clipPath>
			<path style="clip-path:url(#SVGID_00000083788284965175185970000000250079985630805172_);fill:#B0B1B1;" d="M884.6,244.8h-7.8
				l-4.5-7.2c-1.2-1.9-2.2-3.3-3-4.3c-0.7-0.9-1.4-1.6-1.9-1.9l-1.6-0.7c-0.2-0.1-0.9-0.1-2.1-0.1h-3.9v14.3h-6.3v-34.2h15.3
				c3,0,5.3,0.3,6.9,0.9c1.7,0.7,3.1,1.8,4.1,3.5c1,1.6,1.5,3.4,1.5,5.4c0,2.5-0.8,4.7-2.5,6.5c-1.2,1.2-2.8,2.2-4.8,2.7l0.5,0.4
				l0,0c1.3,1.2,2.5,2.7,3.7,4.5L884.6,244.8z M859.7,224.9h8.1c1.8,0,3.2-0.2,4.2-0.5c0.9-0.3,1.5-0.8,2-1.5
				c0.5-0.7,0.7-1.5,0.7-2.3c0-1.2-0.4-2.2-1.3-3c-0.9-0.8-2.4-1.2-4.5-1.2h-9.2L859.7,224.9L859.7,224.9z"/>
		</g>
		<g>
			<defs>
				<rect id="SVGID_00000052793578561417986270000006775009303595109538_" width="922.3" height="182.3"/>
			</defs>
			<clipPath id="SVGID_00000155114357412539678570000017158561394702765475_">
				<use xlink:href="#SVGID_00000052793578561417986270000006775009303595109538_"  style="overflow:visible;"/>
			</clipPath>
			<polygon style="clip-path:url(#SVGID_00000155114357412539678570000017158561394702765475_);fill:#B0B1B1;" points="900.3,240 
				900.3,229.1 918.1,229.1 918.1,225.3 900.3,225.3 900.3,215.5 919.3,215.5 919.3,211.7 896.1,211.7 896.1,243.8 920.1,243.8 
				920.1,240 			"/>
		</g>
		<g>
			<defs>
				<rect id="SVGID_00000055669186732782859250000003042456564897566911_" width="922.3" height="182.3"/>
			</defs>
			<clipPath id="SVGID_00000145051821249904226140000014883735457971318188_">
				<use xlink:href="#SVGID_00000055669186732782859250000003042456564897566911_"  style="overflow:visible;"/>
			</clipPath>
			<polygon style="clip-path:url(#SVGID_00000145051821249904226140000014883735457971318188_);fill:#B0B1B1;" points="921.1,244.8 
				895.1,244.8 895.1,210.7 920.3,210.7 920.3,216.5 901.3,216.5 901.3,224.3 919.1,224.3 919.1,230.1 901.3,230.1 901.3,239 
				921.1,239 			"/>
		</g>
	</g>
</g>
</svg>
