<?xml version="1.0" standalone="no"?><!DOCTYPE svg PUBLIC "-//W3C//DTD SVG 1.1//EN" "http://www.w3.org/Graphics/SVG/1.1/DTD/svg11.dtd"><svg t="1693276675732" class="icon" viewBox="0 0 1024 1024" version="1.1" xmlns="http://www.w3.org/2000/svg" p-id="1453" xmlns:xlink="http://www.w3.org/1999/xlink" width="200" height="200"><path d="M682.666667 384l186.496 74.624a42.666667 42.666667 0 0 1 26.837333 39.594667V896a42.666667 42.666667 0 0 1-42.666667 42.666667H170.666667a42.666667 42.666667 0 0 1-42.666667-42.666667v-397.781333c0-17.450667 10.624-33.152 26.837333-39.594667L341.333333 384h341.333334z m-16.426667 85.333333h-308.48L213.333333 527.104V853.333333h597.333334v-42.666666H341.333333v-213.333334h469.333334v-70.229333L666.24 469.333333zM682.666667 128a42.666667 42.666667 0 0 1 42.666666 42.666667v170.666666H298.666667V170.666667a42.666667 42.666667 0 0 1 42.666666-42.666667h341.333334z m-42.666667 85.333333H384v42.666667h256V213.333333z" p-id="1454" fill="#ffffff"></path></svg>