<?xml version="1.0" standalone="no"?><!DOCTYPE svg PUBLIC "-//W3C//DTD SVG 1.1//EN" "http://www.w3.org/Graphics/SVG/1.1/DTD/svg11.dtd"><svg t="1692752294321" class="icon" viewBox="0 0 1024 1024" version="1.1" xmlns="http://www.w3.org/2000/svg" p-id="4127" xmlns:xlink="http://www.w3.org/1999/xlink" width="200" height="200"><path d="M257.243317 303.056224c-13.846356 0-25.071002 11.224646-25.071002 25.071002s11.224646 25.071002 25.071002 25.071002c13.845333 0 25.071002-11.224646 25.071002-25.071002S271.089673 303.056224 257.243317 303.056224zM257.243317 350.691127c-12.44238 0-22.562878-10.121522-22.562878-22.563902 0-12.443403 10.120498-22.563902 22.562878-22.563902s22.562878 10.120498 22.562878 22.563902C279.806195 340.569606 269.685697 350.691127 257.243317 350.691127z" fill="#FFFFFF" p-id="4128"></path><path d="M255.843434 309.422212l2.801812 0 0 20.205181-2.801812 0 0-20.205181Z" fill="#FFFFFF" p-id="4129"></path><path d="M255.941672 326.72632l20.203134 0 0 2.801812-20.203134 0 0-2.801812Z" fill="#FFFFFF" p-id="4130"></path><path d="M768.591471 561.249681c-138.89335 126.884852-277.719162 253.769704-416.592047 380.520503-57.187467 52.247968-142.426827-32.586163-85.012186-85.016279 123.576503-112.877837 247.15403-225.715765 370.731556-338.599741C513.507842 401.373437 389.340891 284.457634 265.107425 167.634952c-56.577576-53.15564 28.661783-138.078799 85.059258-84.96716 139.481751 131.189901 278.943037 262.379802 418.425811 393.569704C791.656793 498.033917 792.24724 539.725458 768.591471 561.249681z" fill="#ffffff" p-id="4131" data-spm-anchor-id="a313x.search_index.0.i0.6e8f3a81lCRn5G" class="selected"></path></svg>